<?xml version="1.0" encoding="UTF-8"?>
<svg id="Layer_1" data-name="Layer 1" xmlns="http://www.w3.org/2000/svg" viewBox="0 0 2298.5 646.53">
  <defs>
    <style>
      .cls-1 {
        fill: #ff9900;
      }

      .cls-1, .cls-2 {
        stroke-width: 0px;
      }

      .cls-2 {
        fill: #fff;
      }
    </style>
  </defs>
  <path class="cls-1" d="M1781.23,646.52c-153.99,0-307.98,0-461.96,0-24.97,0-44.29-12.82-52.13-34.47-2.3-6.35-3.09-12.94-3.09-19.63-.02-179.46-.04-358.92.01-538.39,0-32.14,22.53-54.02,55.28-54.02,188.15-.01,376.3,0,564.46,0,119.82,0,239.65,0,359.47,0,25.18,0,44.65,13.04,52.28,34.94,2.1,6.04,2.94,12.3,2.94,18.66,0,179.8.04,359.59-.03,539.39-.01,31.5-22.68,53.51-54.76,53.52-154.15.03-308.31.01-462.46.01ZM2027.52,242.13c1.28-40.43,2.46-79.89,3.86-119.34.15-4.3-.37-6.03-5.36-5.95-20.82.32-41.66.31-62.48,0-4.88-.07-5.96,1.22-5.95,6,.16,87.8.12,175.6.12,263.39,0,38.32,0,76.64-.01,114.95,0,2.69-.53,5.06,3.8,5.01,20.33-.22,40.65-.16,60.98-.03,3.18.02,3.9-1.15,3.9-4.08,0-5.69-.56-11.43.37-17.31,9.33,4.64,18.14,9.28,27.17,13.46,18.19,8.43,37.38,14.19,57.43,12.89,41.89-2.72,74.9-21.96,96.18-58.36,28.73-49.15,31.03-101.28,13.33-154.59-19.63-59.12-74.04-85.6-129.12-79.63-22.96,2.49-44.45,9.36-64.22,23.58ZM1430.3,242.72v-5.79c0-38.32-.05-76.65.08-114.97.01-3.79-.81-5.13-4.92-5.09-21.33.22-42.66.21-63.99,0-4.02-.04-4.91,1.16-4.91,5.01.1,125.97.11,251.94-.02,377.91,0,4.29,1.24,5.13,5.27,5.09,21.16-.21,42.33-.23,63.49.01,4.36.05,5.1-1.36,5.09-5.35-.14-43.99-.1-87.98-.08-131.97,0-13.16.88-26.25,2.32-39.37,3.91-35.51,37.03-58.4,69.63-52.61,14.19,2.52,32.88,18.44,33.72,36.75.74,16.14,1.63,32.27,1.64,48.43.03,46.82.06,93.64-.08,140.47-.01,3.96,1.07,4.97,4.97,4.94,21.66-.19,43.33-.2,64.99,0,4.19.04,5.22-1.16,5.21-5.28-.16-41.49-.06-82.98-.11-124.47-.02-22.16.39-44.32-.87-66.46-.77-13.53-2.63-26.68-8.92-39.07-14.09-27.77-34.69-47.94-66.44-51.72-37.38-4.46-73.32,1.12-106.07,23.52ZM1842.69,475.24c0,9.44.15,17.6-.08,25.75-.09,3.12.86,3.9,3.91,3.88,20.16-.13,40.32-.14,60.48,0,3.27.02,4.18-.91,4.18-4.18-.08-90.63-.09-181.26,0-271.89,0-3.61-1.16-4.42-4.55-4.39-18.66.15-37.32.05-55.99.09-4.14,0-9.62-1.36-12.07.73-2.89,2.46-.91,8.13-.97,12.39-.72,51.13,1.67,102.29-1.92,153.38-.95,13.46-2.45,26.82-10.84,38.35-11.5,15.8-26.9,24.76-46.21,26.2-22.17,1.66-45.87-16.85-47.02-44.88-.85-20.65-1.33-41.29-1.44-61.94-.22-39.48-.17-78.97.06-118.45.03-5.01-1.47-5.96-6.13-5.9-20.99.26-41.99.26-62.98,0-4.72-.06-6.13.99-6.11,5.95.18,58.64.07,117.29.13,175.93.01,11.17.95,22.3,3.67,33.18,9.21,36.91,30.68,62.05,69.07,69.76,25.63,5.15,50.72,1.43,74.98-7.9,14.73-5.67,27.81-14.04,39.81-26.04Z"/>
  <g>
    <path class="cls-2" d="M0,123.69h358.3v94.19h-120.21v287.27h-117.87V217.88H0v-94.19Z"/>
    <path class="cls-2" d="M658.08,393.26h-212.33c1.91,17,6.5,29.66,13.79,37.99,10.23,11.97,23.59,17.95,40.07,17.95,10.41,0,20.3-2.6,29.66-7.81,5.72-3.29,11.88-9.11,18.47-17.43l104.34,9.63c-15.96,27.76-35.22,47.66-57.76,59.72-22.55,12.05-54.9,18.08-97.06,18.08-36.6,0-65.4-5.16-86.39-15.48-20.99-10.32-38.38-26.71-52.17-49.18-13.79-22.46-20.69-48.87-20.69-79.23,0-43.19,13.83-78.15,41.5-104.86,27.67-26.71,65.87-40.07,114.62-40.07,39.55,0,70.78,5.98,93.67,17.95,22.9,11.97,40.33,29.32,52.3,52.04,11.97,22.73,17.95,52.3,17.95,88.73v11.97ZM550.36,342.52c-2.08-20.47-7.59-35.13-16.52-43.97-8.94-8.85-20.69-13.27-35.26-13.27-16.83,0-30.27,6.68-40.33,20.04-6.42,8.33-10.5,20.73-12.23,37.21h104.34Z"/>
    <path class="cls-2" d="M666.69,428.39l105.12-9.89c4.33,12.49,10.41,21.43,18.21,26.8,7.81,5.38,18.21,8.07,31.22,8.07,14.22,0,25.24-3.03,33.05-9.1,6.07-4.5,9.11-10.13,9.11-16.88,0-7.62-3.99-13.51-11.97-17.67-5.72-2.94-20.91-6.58-45.54-10.91-36.78-6.41-62.32-12.34-76.63-17.8-14.31-5.46-26.37-14.69-36.17-27.68-9.8-12.99-14.7-27.81-14.7-44.45,0-18.2,5.29-33.88,15.87-47.05,10.58-13.17,25.15-23,43.71-29.5,18.56-6.5,43.45-9.75,74.68-9.75,32.96,0,57.29,2.52,72.99,7.55,15.7,5.03,28.79,12.84,39.29,23.42,10.49,10.58,19.21,24.89,26.15,42.93l-100.44,9.89c-2.6-8.85-6.94-15.35-13.01-19.52-8.33-5.55-18.39-8.33-30.18-8.33s-20.69,2.12-26.15,6.37c-5.46,4.24-8.2,9.4-8.2,15.46,0,6.76,3.47,11.86,10.41,15.33,6.94,3.46,22.03,6.58,45.28,9.36,35.21,3.98,61.41,9.53,78.58,16.64s30.31,17.24,39.42,30.41c9.11,13.17,13.66,27.64,13.66,43.41s-4.81,31.46-14.44,46.53-24.81,27.08-45.54,36c-20.73,8.92-48.96,13.38-84.7,13.38-50.48,0-86.43-7.2-107.86-21.6-21.43-14.4-35.17-34.87-41.24-61.41Z"/>
    <path class="cls-2" d="M1117.38,123.69v105.12h58.29v77.54h-58.29v97.9c0,11.77,1.13,19.56,3.38,23.37,3.47,5.89,9.54,8.83,18.21,8.83,7.81,0,18.73-2.25,32.79-6.75l7.81,73.11c-26.2,5.72-50.66,8.59-73.38,8.59-26.37,0-45.8-3.38-58.29-10.14-12.49-6.76-21.73-17.02-27.71-30.79-5.98-13.77-8.98-36.08-8.98-66.92v-97.19h-39.03v-77.54h39.03v-50.74l106.16-54.38Z"/>
  </g>
  <path class="cls-1" d="M2031.55,358.7c-.07-17.16,2.03-32.93,8.21-47.92,12.15-29.45,42.08-43.22,71.63-33.09,14.01,4.8,23.68,14.58,30.44,27.34,11.64,21.98,14.69,45.7,13.38,70.17-.76,14.19-3.12,28.12-8.6,41.32-7.24,17.45-18.45,31-37.86,35.15-22.27,4.75-40.8-2.03-54.96-19.87-12.58-15.85-18.18-34.54-21.05-54.22-.97-6.61-1.28-13.25-1.18-18.89Z"/>
</svg>